# xmcd
#
# Track frame offsets:
#	150
#	18415
#	36711
#	59336
#	75369
#	94184
#	112933
#	129533
#	156123
#	175608
#	196972
#
# Disc length: 2899 seconds
#
# Revision: 0
# Processed by: cddbd v1.5.2PL0 Copyright (c) Steve Scherf et al.
# Submitted via: EasyCDDAExtractor 12.0.1.1
#
DISCID=860b510b
DTITLE=Richard Hawke - Soldier Joe
DYEAR=2009
DGENRE=Country
TTITLE0=Something I Said About You
TTITLE1=It Might Just Be My Imagination
TTITLE2=Just A Moment Of Madness
TTITLE3=Sometimes When You're Gone
TTITLE4=Everyone's A Winner
TTITLE5=Every Heart Can Be Broken
TTITLE6=Last Cowboy In Town
TTITLE7=Long Time Lover
TTITLE8=As The World Goes By
TTITLE9=The Boat People
TTITLE10=Soldier Joe
EXTD=
EXTT0=
EXTT1=
EXTT2=
EXTT3=
EXTT4=
EXTT5=
EXTT6=
EXTT7=
EXTT8=
EXTT9=
EXTT10=
PLAYORDER=
